<?xml version="1.0" standalone="no"?>
<!DOCTYPE svg PUBLIC "-//W3C//DTD SVG 20010904//EN"
 "http://www.w3.org/TR/2001/REC-SVG-20010904/DTD/svg10.dtd">
<svg version="1.0" xmlns="http://www.w3.org/2000/svg"
 width="819.000000pt" height="655.000000pt" viewBox="0 0 819.000000 655.000000"
 preserveAspectRatio="xMidYMid meet">

<g transform="translate(0.000000,655.000000) scale(0.100000,-0.100000)"
fill="#000000" stroke="none">
<path d="M33 3528 c4 -1646 7 -2993 7 -2993 0 0 78 0 172 0 l173 0 3 -173 2
-172 -175 0 c-110 0 -175 -4 -175 -10 0 -6 65 -10 174 -10 l173 0 9 -72 8 -73
6 70 5 70 178 3 177 2 0 -70 c0 -40 4 -70 10 -70 6 0 9 3 9 8 -1 4 -1 35 0 70
l1 62 175 0 175 0 0 -70 c0 -40 4 -70 10 -70 6 0 10 30 10 70 l0 70 178 -2
177 -3 5 -70 6 -70 4 70 5 70 177 3 177 2 3 -72 3 -73 9 73 9 72 173 0 174 0
0 -57 c0 -32 5 -65 10 -73 7 -10 10 7 10 58 l0 72 174 0 c197 0 185 6 188 -88
l2 -57 5 70 6 70 178 3 177 2 0 -72 c0 -51 3 -68 10 -58 5 8 10 41 10 73 l0
57 175 0 175 0 0 -70 c0 -40 4 -70 10 -70 6 0 10 30 10 70 l0 70 178 -2 177
-3 6 -70 5 -70 2 57 c3 94 -9 88 188 88 l174 0 0 -70 c0 -40 4 -70 10 -70 6 0
10 30 10 70 l0 70 175 0 175 0 1 -45 c1 -25 3 -49 4 -55 1 -5 4 -18 6 -27 1
-10 5 14 8 52 l6 70 178 3 177 2 0 -72 c0 -51 3 -68 10 -58 5 8 10 41 10 73
l0 57 175 0 175 0 0 -70 c0 -40 4 -70 10 -70 6 0 10 30 10 70 l0 70 174 0 174
0 6 -31 c3 -17 7 -50 8 -73 1 -27 3 -17 7 29 l6 70 175 0 175 0 5 -70 6 -70 8
73 9 72 173 0 174 0 0 -70 c0 -40 4 -70 10 -70 6 0 10 30 10 70 l0 70 174 0
173 0 9 -72 8 -73 6 70 5 70 178 3 177 2 0 -71 c0 -100 17 -74 19 29 l1 42
175 0 175 0 0 -70 c0 -40 4 -70 10 -70 6 0 10 30 10 70 l0 70 178 -2 177 -3 5
-70 6 -70 4 70 5 70 143 3 c188 3 190 22 2 22 l-140 0 2 173 3 172 138 3 c113
2 137 5 137 17 0 13 -24 15 -141 15 -125 0 -140 2 -135 16 3 9 6 36 6 61 0 41
1 44 17 32 11 -10 14 -10 9 -1 -10 16 16 16 33 -1 11 -9 13 -9 7 1 -9 16 16
16 33 -1 11 -9 13 -9 7 1 -4 7 -2 12 6 12 8 0 20 -6 27 -12 11 -10 13 -10 7 0
-4 7 -2 12 6 12 8 0 20 -6 27 -12 11 -10 13 -10 7 0 -4 7 -2 12 6 12 8 0 20
-6 27 -12 11 -10 13 -10 7 0 -9 16 16 16 32 0 9 -9 12 648 12 2915 l0 2927
-4072 0 -4071 0 6 -2992z m4921 1600 c457 -248 893 -485 969 -526 76 -41 137
-80 135 -86 -2 -7 -149 -247 -326 -534 l-324 -523 55 -54 c82 -80 119 -163
125 -281 8 -163 -35 -273 -152 -389 -86 -86 -178 -136 -314 -172 -87 -23 -120
-26 -324 -31 -126 -2 -228 -2 -228 1 0 4 764 1237 1126 1817 40 65 50 88 41
96 -7 6 -336 187 -732 402 -932 505 -890 482 -903 482 -10 0 -639 -338 -1430
-769 -116 -64 -212 -120 -212 -126 0 -10 154 -260 831 -1346 181 -289 331
-533 335 -542 6 -16 -10 -17 -184 -17 -215 0 -317 14 -443 60 -197 71 -318
196 -373 380 -44 149 6 336 116 435 26 24 48 48 48 54 0 8 -165 277 -583 949
-56 91 -68 116 -56 123 14 9 298 163 1364 743 319 173 586 313 594 310 8 -2
388 -208 845 -456z m386 -873 c0 -3 -254 -398 -563 -878 -686 -1062 -667
-1032 -675 -1034 -4 -1 -74 102 -155 230 -82 128 -356 552 -608 942 -253 391
-464 718 -470 728 -9 16 52 17 1231 17 682 0 1240 -2 1240 -5z m-1585 -2063
c6 -16 7 -16 20 1 10 14 22 17 56 13 74 -8 171 -26 188 -35 9 -5 37 -12 64
-16 37 -6 47 -11 47 -26 0 -25 16 -24 23 1 4 14 14 20 34 20 15 0 46 7 69 15
44 15 133 28 174 26 50 -3 63 -8 75 -30 10 -20 13 -21 18 -7 9 24 23 20 110
-31 87 -51 143 -60 205 -33 27 12 34 12 41 2 6 -10 11 -5 20 16 25 60 174 101
293 80 46 -8 58 -15 58 -34 0 -18 16 -18 23 0 4 11 21 13 71 9 36 -3 86 0 111
6 88 22 157 25 171 7 11 -15 12 -15 18 0 5 13 16 15 74 8 37 -4 113 -8 170 -8
73 -1 105 -5 111 -14 6 -10 10 -10 21 3 16 19 48 14 134 -22 49 -20 70 -24
115 -19 31 4 70 7 86 9 17 1 38 10 49 21 15 15 28 18 71 13 64 -6 94 -21 130
-65 25 -30 26 -34 10 -45 -15 -12 -15 -14 8 -24 37 -17 54 -86 51 -198 -5
-139 -5 -139 -42 -151 l-34 -11 23 -14 c22 -15 22 -15 -34 -70 -30 -31 -61
-56 -69 -57 -7 0 -37 -4 -65 -8 -44 -6 -54 -4 -59 10 -8 20 -24 21 -24 1 0 -9
-10 -19 -22 -24 -26 -9 -137 -7 -246 4 -70 7 -74 9 -86 39 l-13 31 -7 -28 -7
-29 -72 7 c-63 6 -160 -3 -234 -21 -16 -4 -25 1 -37 23 -8 15 -15 23 -16 17 0
-5 -6 -18 -12 -27 -12 -16 -20 -16 -123 3 -74 14 -127 19 -163 15 -48 -6 -54
-5 -59 14 -7 29 -17 26 -29 -7 -9 -23 -19 -30 -50 -35 -58 -10 -124 -8 -210 4
-72 11 -77 13 -87 43 -11 31 -11 31 -17 6 -6 -24 -10 -25 -105 -32 -171 -11
-213 -15 -224 -23 -7 -4 -17 7 -25 25 l-13 32 -11 -31 c-10 -28 -15 -31 -54
-31 -38 1 -71 6 -155 25 -12 3 -48 11 -80 18 -43 10 -59 18 -61 33 -6 32 -22
41 -22 12 0 -23 -6 -28 -52 -42 -29 -8 -57 -16 -63 -17 -5 -1 -37 -9 -70 -18
-33 -9 -81 -18 -107 -20 -42 -2 -48 0 -61 26 l-15 28 -7 -28 c-7 -28 -8 -28
-69 -22 -33 3 -110 8 -171 10 -109 5 -110 5 -113 30 -4 31 -22 23 -22 -9 0
-22 -5 -24 -82 -31 -71 -6 -178 -9 -241 -6 -10 1 -22 13 -28 29 l-11 27 -9
-23 c-9 -24 -11 -24 -107 -17 -53 4 -104 9 -112 10 -8 1 -39 6 -68 10 -43 6
-55 12 -66 33 l-14 27 -7 -27 c-6 -25 -12 -28 -49 -28 -22 0 -79 -6 -126 -13
-108 -15 -171 -9 -180 18 -7 19 -7 19 -19 -4 -12 -22 -17 -23 -74 -17 -34 3
-109 9 -166 12 -90 6 -104 9 -108 25 -7 27 -20 23 -27 -7 -6 -24 -9 -25 -49
-19 -56 10 -89 27 -132 72 -40 41 -42 48 -17 58 14 6 11 9 -17 19 -27 10 -37
21 -52 61 -11 28 -21 64 -24 80 -2 17 -8 53 -12 80 -12 78 -6 122 19 128 16 5
19 9 11 19 -17 22 -24 78 -10 82 28 9 157 26 215 30 49 3 64 0 71 -12 7 -13
11 -12 21 8 l12 23 161 -7 c128 -5 164 -10 179 -23 11 -10 18 -12 18 -4 0 22
50 31 199 37 145 5 148 5 154 -16 5 -19 8 -20 26 -8 18 11 30 8 96 -25 86 -42
116 -45 163 -17 25 15 50 20 110 20 76 0 77 0 97 -33 28 -46 28 -47 11 -47
-31 0 -15 -19 25 -30 22 -6 43 -18 46 -26 7 -20 76 -14 101 9 11 10 33 19 51
20 24 2 31 7 31 23 0 44 13 82 29 88 9 2 41 14 72 25 32 10 90 22 130 26 41 4
75 8 76 9 11 10 52 2 58 -12z m-375 -112 c0 -13 -7 -20 -20 -20 -19 0 -19 1
-2 19 22 25 22 25 22 1z m-3281 -1402 c11 -10 13 -10 7 0 -4 7 -2 12 6 12 8 0
20 -6 27 -12 11 -10 13 -10 7 0 -4 7 -2 12 6 12 8 0 20 -6 27 -12 11 -10 13
-10 7 0 -4 7 -2 12 6 12 8 0 20 -6 27 -12 11 -10 13 -10 7 0 -4 7 -2 12 6 12
8 0 20 -6 27 -12 11 -10 13 -10 7 0 -4 7 -2 12 6 12 8 0 20 -6 27 -12 11 -10
13 -10 7 0 -4 7 -2 12 6 12 8 0 20 -6 27 -12 11 -10 13 -10 7 0 -4 7 -1 12 9
12 18 0 22 -9 29 -72 l5 -48 -170 0 -169 0 0 53 c0 30 3 57 7 60 10 11 28 8
42 -5z m360 0 c11 -10 13 -10 7 0 -4 7 -2 12 6 12 8 0 20 -6 27 -12 11 -10 13
-10 7 0 -4 7 -2 12 6 12 8 0 20 -6 27 -12 11 -10 13 -10 7 0 -4 7 -2 12 6 12
8 0 20 -6 27 -12 11 -10 13 -10 7 0 -4 7 -2 12 6 12 8 0 20 -6 27 -12 11 -10
13 -10 7 0 -4 7 -2 12 6 12 8 0 20 -6 27 -12 11 -10 13 -10 7 0 -4 7 -2 12 6
12 8 0 20 -6 27 -12 11 -10 13 -10 7 0 -4 7 -2 12 6 12 8 0 20 -6 27 -12 11
-11 12 -10 6 1 -5 9 -4 12 3 7 7 -4 12 -31 12 -62 l0 -54 -170 0 -170 0 4 23
c3 12 5 39 5 60 1 39 8 45 30 25z m367 0 c-4 7 -2 12 6 12 8 0 20 -6 27 -12
11 -10 13 -10 7 0 -4 7 -2 12 6 12 8 0 20 -6 27 -12 11 -10 13 -10 7 0 -4 7
-2 12 6 12 8 0 20 -6 27 -12 11 -10 13 -10 7 0 -4 7 -2 12 6 12 8 0 20 -6 27
-12 11 -10 13 -10 7 0 -4 7 -2 12 6 12 8 0 20 -6 27 -12 11 -10 13 -10 7 0 -4
7 -2 12 6 12 8 0 20 -6 27 -12 11 -10 13 -10 7 0 -4 7 -2 12 6 12 8 0 20 -6
27 -12 11 -10 13 -10 7 0 -4 7 -1 12 8 12 13 0 16 -12 16 -60 l0 -60 -165 0
-165 0 0 61 c0 56 1 60 17 48 11 -10 14 -10 9 -1z m674 -50 l5 -58 -169 0
-168 0 7 48 c4 26 8 52 8 58 0 8 48 11 156 10 l156 -1 5 -57z m380 0 l0 -58
-171 0 c-152 0 -170 2 -165 16 3 9 6 35 6 58 l0 43 165 0 165 0 0 -59z m209
48 c11 -8 13 -8 7 2 -4 7 -2 12 6 12 8 0 20 -6 27 -12 11 -10 13 -10 7 0 -4 7
-2 12 6 12 8 0 20 -6 27 -12 11 -10 13 -10 7 0 -4 7 -2 12 6 12 8 0 20 -6 27
-12 11 -11 12 -10 6 0 -5 10 -2 13 11 10 16 -3 20 -14 22 -61 l3 -57 -167 0
-167 0 7 52 c4 28 9 55 12 59 7 11 138 7 153 -5z m240 2 c11 -10 13 -10 7 0
-4 7 -2 12 6 12 8 0 20 -6 27 -12 11 -10 13 -10 7 0 -4 7 -2 12 6 12 8 0 20
-6 27 -12 11 -10 13 -10 7 0 -4 7 -2 12 6 12 8 0 20 -6 27 -12 11 -10 13 -10
7 0 -4 7 -2 12 6 12 8 0 20 -6 27 -12 11 -10 13 -10 7 0 -4 7 -2 12 6 12 8 0
20 -6 27 -12 11 -10 13 -10 7 0 -4 7 -2 12 6 12 8 0 20 -6 27 -12 11 -10 13
-10 7 0 -4 7 -2 12 6 12 8 0 20 -6 27 -12 11 -10 13 -10 7 0 -4 6 -2 12 3 12
7 0 11 -24 11 -60 l0 -60 -171 0 -171 0 6 31 c3 17 6 44 6 60 0 31 8 36 29 17z
m367 0 c-4 7 -2 12 6 12 8 0 20 -6 27 -12 11 -10 13 -10 7 0 -4 7 -2 12 6 12
8 0 20 -6 27 -12 11 -10 13 -10 7 0 -4 7 -2 12 6 12 8 0 20 -6 27 -12 11 -10
13 -10 7 0 -4 7 -2 12 6 12 8 0 20 -6 27 -12 11 -10 13 -10 7 0 -4 7 -2 12 6
12 8 0 20 -6 27 -12 11 -10 13 -10 7 0 -4 7 -2 12 6 12 8 0 20 -6 27 -12 11
-10 13 -10 7 0 -4 7 -2 12 6 12 8 0 20 -6 27 -12 11 -10 13 -10 7 0 -4 7 -1
12 8 12 13 0 16 -12 16 -60 l0 -60 -167 0 -168 0 3 60 c3 54 6 60 20 48 12
-10 14 -10 8 0z m393 0 c11 -10 13 -10 7 0 -4 7 -2 12 6 12 8 0 20 -6 27 -12
11 -10 13 -10 7 0 -4 7 -2 12 6 12 8 0 20 -6 27 -12 11 -10 13 -10 7 0 -4 7
-2 12 6 12 8 0 20 -6 27 -12 11 -10 13 -10 7 0 -4 7 -2 12 6 12 8 0 20 -6 27
-12 11 -10 13 -10 7 0 -4 7 -2 12 6 12 8 0 20 -6 27 -12 11 -10 13 -10 7 0 -4
7 -2 12 6 12 8 0 20 -6 27 -12 11 -10 12 -10 7 -1 -5 9 0 12 17 11 22 -2 24
-7 26 -60 l2 -58 -172 0 -172 0 7 48 c4 26 7 53 8 60 1 6 6 12 13 12 6 0 17
-6 24 -12z m360 0 c11 -10 13 -10 7 0 -4 7 -2 12 6 12 8 0 20 -6 27 -12 11
-10 13 -10 7 0 -4 7 -2 12 6 12 8 0 20 -6 27 -12 11 -10 13 -10 7 0 -4 7 -2
12 6 12 8 0 20 -6 27 -12 11 -10 13 -10 7 0 -4 7 -2 12 6 12 8 0 20 -6 27 -12
11 -10 13 -10 7 0 -4 7 -2 12 6 12 8 0 20 -6 27 -12 11 -10 13 -10 7 0 -4 7
-2 12 6 12 8 0 20 -6 27 -12 11 -10 13 -10 7 0 -4 7 -2 12 6 12 8 0 20 -6 27
-12 11 -10 13 -10 7 0 -4 6 -2 12 3 12 7 0 11 -24 11 -60 l0 -60 -171 0 -172
0 7 38 c3 20 6 47 6 60 0 25 10 28 29 10z m367 0 c-4 7 -2 12 6 12 8 0 20 -6
27 -12 11 -10 13 -10 7 0 -4 7 -2 12 6 12 8 0 20 -6 27 -12 11 -10 13 -10 7 0
-4 7 -2 12 6 12 8 0 20 -6 27 -12 11 -10 13 -10 7 0 -4 7 -2 12 6 12 8 0 20
-6 27 -12 11 -10 13 -10 7 0 -4 7 -2 12 6 12 8 0 20 -6 27 -12 11 -10 13 -10
7 0 -4 7 -2 12 6 12 8 0 20 -6 27 -12 11 -10 13 -10 7 0 -4 7 -2 12 6 12 8 0
20 -6 27 -12 11 -10 13 -10 7 0 -4 7 -1 12 8 12 11 0 16 -10 17 -32 0 -18 3
-45 5 -60 l5 -28 -171 0 -170 0 0 61 c0 56 1 60 17 48 11 -10 14 -10 9 -1z
m393 0 c11 -10 13 -10 7 0 -4 7 -2 12 6 12 8 0 20 -6 27 -12 11 -10 13 -10 7
0 -4 7 -2 12 6 12 8 0 20 -6 27 -12 11 -10 13 -10 7 0 -4 7 -2 12 6 12 8 0 20
-6 27 -12 11 -10 13 -10 7 0 -4 7 -2 12 6 12 8 0 20 -6 27 -12 11 -10 13 -10
7 0 -4 7 -2 12 6 12 8 0 20 -6 27 -12 11 -10 13 -10 7 0 -4 7 -2 12 6 12 8 0
20 -6 27 -12 11 -10 13 -10 7 0 -4 7 -1 12 9 12 18 0 22 -9 29 -72 l5 -48
-170 0 -169 0 0 53 c0 30 3 57 7 60 10 11 28 8 42 -5z m360 0 c11 -10 13 -10
7 0 -4 7 -2 12 6 12 8 0 20 -6 27 -12 11 -10 13 -10 7 0 -4 7 -2 12 6 12 8 0
20 -6 27 -12 11 -10 13 -10 7 0 -4 7 -2 12 6 12 8 0 20 -6 27 -12 11 -10 13
-10 7 0 -4 7 -2 12 6 12 8 0 20 -6 27 -12 11 -10 13 -10 7 0 -4 7 -2 12 6 12
8 0 20 -6 27 -12 11 -10 13 -10 7 0 -4 7 -2 12 6 12 8 0 20 -6 27 -12 11 -10
12 -10 7 -1 -5 9 0 12 17 11 13 -1 24 -7 24 -13 0 -5 4 -31 8 -57 l7 -48 -171
0 -171 0 4 23 c3 12 5 39 5 60 1 39 8 45 30 25z m367 0 c-4 7 -2 12 6 12 8 0
20 -6 27 -12 11 -10 13 -10 7 0 -4 7 -2 12 6 12 8 0 20 -6 27 -12 11 -10 13
-10 7 0 -4 7 -2 12 6 12 8 0 20 -6 27 -12 11 -10 13 -10 7 0 -4 7 -2 12 6 12
8 0 20 -6 27 -12 11 -10 13 -10 7 0 -4 7 -2 12 6 12 8 0 20 -6 27 -12 11 -10
13 -10 7 0 -4 7 -2 12 6 12 8 0 20 -6 27 -12 11 -10 13 -10 7 0 -4 7 -2 12 6
12 8 0 20 -6 27 -12 11 -10 13 -10 7 0 -4 7 -1 12 8 12 13 0 16 -12 16 -60 l0
-60 -165 0 -165 0 0 61 c0 56 1 60 17 48 11 -10 14 -10 9 -1z m672 -50 l3 -58
-167 0 -167 0 7 38 c3 20 6 47 6 58 0 21 4 21 158 20 l157 -1 3 -57z m382 0
l0 -58 -171 0 c-152 0 -170 2 -165 16 3 9 6 35 6 58 l0 43 165 0 165 0 0 -59z
m169 48 c11 -8 13 -8 7 2 -4 7 -2 12 6 12 8 0 20 -6 27 -12 11 -10 13 -10 7 0
-4 7 -2 12 6 12 8 0 20 -6 27 -12 11 -10 13 -10 7 0 -4 7 -2 12 6 12 8 0 20
-6 27 -12 11 -10 13 -10 7 0 -4 7 -2 12 6 12 8 0 20 -6 27 -12 11 -11 12 -10
6 0 -5 10 -2 13 11 10 16 -3 20 -14 22 -61 l3 -57 -167 0 -167 0 7 52 c4 28 9
55 12 59 7 11 97 7 113 -5z m280 2 c11 -10 13 -10 7 0 -4 7 -2 12 6 12 8 0 20
-6 27 -12 11 -10 13 -10 7 0 -4 7 -2 12 6 12 8 0 20 -6 27 -12 11 -10 13 -10
7 0 -4 7 -2 12 6 12 8 0 20 -6 27 -12 11 -10 13 -10 7 0 -4 7 -2 12 6 12 8 0
20 -6 27 -12 11 -10 13 -10 7 0 -4 7 -2 12 6 12 8 0 20 -6 27 -12 11 -10 13
-10 7 0 -4 7 -2 12 6 12 8 0 20 -6 27 -12 11 -10 13 -10 7 0 -4 7 -2 12 6 12
8 0 20 -6 27 -12 11 -10 13 -10 7 0 -4 6 -2 12 3 12 7 0 11 -24 11 -60 l0 -60
-171 0 -171 0 6 31 c3 17 6 44 6 60 0 31 8 36 29 17z m367 0 c-4 7 -2 12 6 12
8 0 20 -6 27 -12 11 -10 13 -10 7 0 -4 7 -2 12 6 12 8 0 20 -6 27 -12 11 -10
13 -10 7 0 -4 7 -2 12 6 12 8 0 20 -6 27 -12 11 -10 13 -10 7 0 -4 7 -2 12 6
12 8 0 20 -6 27 -12 11 -10 13 -10 7 0 -4 7 -2 12 6 12 8 0 20 -6 27 -12 11
-10 13 -10 7 0 -4 7 -2 12 6 12 8 0 20 -6 27 -12 11 -10 13 -10 7 0 -4 7 -2
12 6 12 8 0 20 -6 27 -12 11 -10 13 -10 7 0 -4 7 -1 12 8 12 13 0 16 -12 16
-60 l0 -60 -171 0 c-152 0 -170 2 -165 16 3 9 6 36 6 61 0 41 1 44 17 32 11
-10 14 -10 9 -1z m393 0 c11 -10 13 -10 7 0 -4 7 -2 12 6 12 8 0 20 -6 27 -12
11 -10 13 -10 7 0 -4 7 -2 12 6 12 8 0 20 -6 27 -12 11 -10 13 -10 7 0 -4 7
-2 12 6 12 8 0 20 -6 27 -12 11 -10 13 -10 7 0 -4 7 -2 12 6 12 8 0 20 -6 27
-12 11 -10 13 -10 7 0 -4 7 -2 12 6 12 8 0 20 -6 27 -12 11 -10 13 -10 7 0 -4
7 -2 12 6 12 8 0 20 -6 27 -12 11 -10 12 -10 7 -1 -5 9 0 12 17 11 22 -2 24
-7 26 -60 l2 -58 -172 0 -172 0 7 48 c4 26 7 53 8 60 1 6 6 12 13 12 6 0 17
-6 24 -12z m360 0 c11 -10 13 -10 7 0 -4 7 -2 12 6 12 8 0 20 -6 27 -12 11
-10 13 -10 7 0 -4 7 -2 12 6 12 8 0 20 -6 27 -12 11 -10 13 -10 7 0 -4 7 -2
12 6 12 8 0 20 -6 27 -12 11 -10 13 -10 7 0 -4 7 -2 12 6 12 8 0 20 -6 27 -12
11 -10 13 -10 7 0 -4 7 -2 12 6 12 8 0 20 -6 27 -12 11 -10 13 -10 7 0 -4 7
-2 12 6 12 8 0 20 -6 27 -12 11 -10 13 -10 7 0 -4 7 -2 12 6 12 8 0 20 -6 27
-12 11 -10 13 -10 7 0 -4 6 -2 12 3 12 7 0 11 -24 11 -60 l0 -60 -170 0 -170
0 0 44 c0 70 12 89 39 64z m-6797 -200 c3 -35 4 -112 4 -173 l-1 -110 -175 0
-175 0 4 165 c2 91 5 168 8 173 2 4 78 7 168 7 l163 0 4 -62z m373 30 c3 -18
5 -96 3 -173 l-3 -140 -172 -3 -173 -2 0 168 c0 93 3 172 7 175 3 4 80 7 169
7 l163 0 6 -32z m369 24 c3 -5 6 -83 7 -173 l1 -164 -168 -3 c-96 -1 -172 2
-177 7 -6 6 -7 74 -2 175 l7 166 163 0 c90 0 166 -4 169 -8z m380 -157 c4 -91
5 -169 1 -175 -4 -6 -72 -10 -176 -10 l-169 0 0 168 c0 93 3 172 7 175 3 4 79
7 168 7 l162 0 7 -165z m370 149 c3 -9 6 -87 6 -175 l0 -159 -172 2 -173 3 -3
140 c-2 77 0 155 3 173 l6 32 163 0 c140 0 165 -2 170 -16z m376 -159 l0 -175
-172 2 -173 3 4 165 c1 91 5 168 8 173 2 4 78 7 169 7 l164 0 0 -175z m375 22
c4 -84 6 -162 3 -173 -3 -18 -13 -19 -178 -19 l-175 0 4 165 c2 91 5 168 8
173 2 4 78 7 168 7 l163 0 7 -153z m375 -22 l0 -175 -172 2 -173 3 -3 120 c-2
66 0 144 3 173 l6 52 170 0 169 0 0 -175z m371 43 c1 -73 2 -151 3 -173 l1
-40 -175 0 -175 0 -3 60 c-2 33 -1 111 3 173 l7 112 169 0 169 0 1 -132z m377
-45 l2 -173 -175 0 -175 0 0 168 c0 93 3 172 7 176 4 3 81 5 172 4 l166 -3 3
-172z m370 0 l2 -173 -175 0 -175 0 0 168 c0 93 3 172 7 176 4 3 81 5 172 4
l166 -3 3 -172z m374 85 c1 -51 2 -129 2 -173 l1 -80 -175 0 -175 0 4 165 c2
91 5 168 8 173 2 4 78 7 169 7 l164 0 2 -92z m373 20 c3 -40 5 -118 3 -173
l-3 -100 -172 -3 -173 -2 0 168 c0 93 3 172 7 175 3 4 79 7 169 7 l162 0 7
-72z m373 -106 l2 -172 -172 2 -173 3 -1 110 c0 61 1 138 4 173 l4 62 166 -2
167 -3 3 -173z m375 11 c4 -92 3 -171 -2 -176 -4 -4 -84 -6 -177 -5 l-169 3 4
165 c1 91 5 168 8 173 2 4 77 7 167 7 l163 0 6 -167z m372 135 c3 -18 5 -96 3
-173 l-3 -140 -170 0 -170 0 -3 140 c-2 77 0 155 3 173 l6 32 164 0 164 0 6
-32z m375 -143 l0 -175 -169 0 c-104 0 -172 4 -176 10 -4 6 -3 84 1 175 l7
165 168 0 169 0 0 -175z m374 9 c4 -96 4 -170 -2 -176 -4 -4 -85 -7 -178 -6
l-169 3 4 165 c2 91 5 168 8 173 2 4 78 7 167 7 l163 0 7 -166z m376 -9 l0
-175 -172 2 -173 3 -2 152 c-1 83 1 161 4 172 5 20 12 21 174 21 l169 0 0
-175z m370 0 l0 -175 -172 2 -173 3 -3 60 c-2 33 -1 111 3 173 l7 112 169 0
169 0 0 -175z"/>
<path d="M3357 3971 c243 -380 740 -1141 745 -1141 3 0 25 30 49 68 23 37 192
297 376 579 183 282 333 515 333 518 0 3 -63 5 -140 5 l-140 0 -93 -142 c-51
-79 -160 -248 -242 -375 -83 -128 -152 -233 -155 -233 -8 0 -140 210 -140 222
0 11 15 36 214 343 l116 180 -143 3 c-120 2 -144 0 -152 -13 -5 -9 -50 -77
-99 -152 l-88 -136 -74 113 -73 114 19 32 c11 17 20 34 20 38 0 3 -79 6 -176
6 l-176 0 19 -29z"/>
<path d="M4685 2050 c-4 -6 22 -10 69 -10 44 0 76 4 76 10 0 6 -30 10 -69 10
-39 0 -73 -4 -76 -10z"/>
</g>
</svg>
